<svg xmlns="http://www.w3.org/2000/svg" width="512" height="512" viewBox="0 0 75.352 75.351"><path d="M24.733 51.242c2.07 4.397 5.162 8.602 9.208 12.516a26.245 26.245 0 01-18.798-12.616l9.59.1zm9.054-39.436c-7.736 1.168-14.37 5.719-18.35 12.118l9.299.102c2.044-4.31 5.09-8.412 9.051-12.22zm3.116 12.35l.138-12.637h-.028c-4.445 3.88-7.827 8.079-10.081 12.525l9.971.112zm-21.464 3.925l-1.836-.017-1.814-.023-.143 13.125-7.349-13.205-2.052-.021-2.044-.022L0 46.592l1.826.027 1.818.017.145-13.463L11.35 46.72l1.948.022 1.943.023.198-18.684zm17.465 3.505l.016-1.665.021-1.654-13.753-.147-.201 18.684 14.18.148.019-1.66.016-1.656-10.275-.109.051-4.875 9.136.098.016-1.602.016-1.612-9.134-.096.044-3.961 9.848.107zm18.644 10.447l-2.56-13.591-2.083-.022-2.073-.026-2.814 13.648-2.975-13.707-2.028-.023-2.029-.024 4.997 18.74 1.853.021 1.859.023 3.091-14.685 2.842 14.743 1.863.027 1.851.019 5.401-18.629-1.974-.021-1.973-.021-3.248 13.528zM39.047 11.542h-.027l-.136 12.635 9.979.105c-2.165-4.494-5.452-8.763-9.816-12.74zm21.312 12.861c-3.844-6.479-10.377-11.169-18.096-12.506 3.887 3.889 6.843 8.054 8.796 12.408l9.3.098zM41 63.833c8.045-.999 14.957-5.613 19.067-12.215l-9.592-.101C48.313 55.87 45.124 60.005 41 63.833zm7.265-12.338l-9.673-.105-.131 12.067c4.257-3.707 7.548-7.731 9.804-11.962zm25.76-13.115c-.913-.805-2.715-1.529-5.429-2.158-1.866-.448-3.089-.815-3.659-1.132-.582-.306-.874-.743-.867-1.306.005-.769.292-1.393.86-1.819.559-.414 1.339-.626 2.326-.613 1.144.009 2.069.285 2.776.807.703.524 1.086 1.228 1.141 2.12l3.801.047c-.121-1.881-.835-3.366-2.136-4.482-1.298-1.117-2.997-1.685-5.091-1.705-2.233-.025-4.015.49-5.34 1.527-1.321 1.049-1.992 2.498-2.01 4.301-.019 1.619.463 2.815 1.441 3.593.994.773 2.97 1.511 5.922 2.199 1.605.374 2.65.741 3.143 1.067.493.338.742.852.735 1.561-.007.714-.365 1.259-1.068 1.656-.707.393-1.674.584-2.924.57-1.209-.014-2.153-.288-2.822-.83-.677-.536-1.023-1.296-1.056-2.298l-3.759-.038c.068 2.016.766 3.576 2.085 4.685 1.318 1.118 3.161 1.68 5.52 1.702 2.361.022 4.227-.461 5.621-1.482 1.396-1.018 2.096-2.4 2.114-4.156.031-1.744-.418-3.018-1.324-3.816zM36.482 63.422l.131-12.054-9.673-.104c2.173 4.275 5.372 8.367 9.542 12.158z" data-original="#000000" class="active-path" data-old_color="#000000" fill="#3E505E"/></svg>