<svg xmlns="http://www.w3.org/2000/svg" width="512" height="512"><path d="M91.001 165C40.823 165 0 205.822 0 256s40.823 91 91.001 91C141.178 347 182 306.178 182 256s-40.822-91-90.999-91zm0 152C57.365 317 30 289.636 30 256s27.365-61 61.001-61C124.636 195 152 222.364 152 256s-27.364 61-60.999 61zm152.871-134.628v36.539c0 8.55-5.13 13.77-12.689 13.77-7.649 0-13.14-5.22-13.14-13.77v-36.539h-16.02v36.539c0 16.649 11.34 27.179 29.07 27.179 17.639 0 28.709-10.53 28.709-27.179v-36.539h-15.93zm42.88 16.83c0-3.06 2.79-4.59 6.93-4.59 5.13 0 13.499 2.7 20.159 6.57l6.029-12.51c-6.479-4.23-15.749-7.02-24.839-7.02-15.119 0-25.108 7.379-25.108 18.989 0 22.319 33.298 15.659 33.298 26.819.001 3.6-3.149 5.49-8.189 5.49-6.569 0-16.289-3.78-22.769-9.45l-6.21 12.33c7.47 6.12 18.27 10.08 28.799 10.08 14.039 0 25.199-6.66 25.199-19.259 0-22.769-33.299-16.56-33.299-27.449zm78.161-16.831h-16.47l-27.179 62.998h16.47l4.59-11.609h27.538l4.5 11.609h17.1l-26.549-62.998zm-17.909 39.24l9.18-23.309 8.999 23.309h-18.179zM202.023 266.54v12.96h18.81l-1 50.127h16.02l1-50.127h18.989v-12.96zm86.799-.45c-19.439 0-34.02 13.59-34.02 31.949 0 18.449 13.58 32.309 33.02 32.309 19.528 0 35.108-13.95 35.108-32.309.001-18.269-14.579-31.949-34.108-31.949zm.18 50.848c-9.63 0-17.819-8.19-17.819-18.809 0-10.62 8.1-18.629 17.819-18.629s17.459 8.01 17.459 18.629c0 10.619-7.739 18.809-17.459 18.809zm68.979-50.308h-27.089l-1 62.998h26.459c20.249 0 35.108-12.87 35.108-31.499.001-18.719-13.679-31.499-33.478-31.499zm.36 50.218h-11.43V279.41h10.71c10.17 0 17.55 7.649 17.55 18.809 0 11.069-7.021 18.629-16.83 18.629zm76.271-50.218h-16.47l-27.179 62.998h16.47l4.59-11.609h27.538l4.5 11.609h17.1l-26.549-62.998zm-17.91 39.238l9.18-23.309 8.999 23.309h-18.179zm79.278-39.238l-14.848 27.449-15.21-27.449h-16.02l23.31 43.108v19.889h15.93v-20.339L512 266.63z" data-original="#000000" class="active-path" data-old_color="#000000" fill="#3E505E"/></svg>